<svg width="80pt" height="64pt" viewBox="0 0 80 64" version="1.1" xmlns="http://www.w3.org/2000/svg">
<g id="#ffffffff">
<path fill="#ffffff" opacity="1.00" d=" M 7.23 0.00 L 72.70 0.00 C 76.44 0.39 79.28 3.37 79.99 6.99 C 66.70 15.38 53.34 23.68 40.00 32.00 C 26.69 23.62 13.33 15.33 0.01 6.98 C 0.71 3.38 3.52 0.43 7.23 0.00 Z" />
<path fill="#ffffff" opacity="1.00" d=" M 0.00 14.93 C 12.48 22.83 25.02 30.63 37.56 38.44 C 39.55 40.03 42.00 38.92 43.82 37.66 C 55.85 30.07 67.98 22.61 80.00 15.00 L 80.00 56.65 C 79.61 60.45 76.57 63.52 72.78 64.00 L 7.37 64.00 C 3.57 63.62 0.48 60.59 0.00 56.80 L 0.00 14.93 Z" />
</g>
</svg>
