<svg width="96pt" height="96pt" viewBox="0 0 96 96" version="1.1" xmlns="http://www.w3.org/2000/svg">
<path fill="#ffffff" opacity="1.00" d=" M 6.27 0.00 L 89.61 0.00 C 92.87 0.46 95.45 3.04 96.00 6.28 L 96.00 89.71 C 95.47 92.92 92.93 95.46 89.72 96.00 L 6.36 96.00 C 3.14 95.52 0.63 92.99 0.00 89.82 L 0.00 6.37 C 0.48 3.12 3.05 0.56 6.27 0.00 M 18.37 13.49 C 12.62 15.10 11.15 23.50 15.82 27.11 C 20.30 31.12 28.51 28.14 28.92 22.00 C 29.94 16.33 23.68 11.40 18.37 13.49 M 48.95 42.57 C 49.00 40.38 49.00 38.19 49.01 36.00 C 44.67 36.00 40.34 36.00 36.00 36.00 C 36.00 51.33 36.00 66.67 36.00 82.00 C 40.67 82.00 45.33 82.00 50.00 82.00 C 50.00 74.34 50.00 66.69 49.99 59.03 C 50.00 56.27 50.23 53.30 51.92 51.00 C 54.67 46.91 61.29 45.48 65.01 49.06 C 67.43 51.35 67.98 54.83 67.99 58.01 C 68.02 66.01 67.99 74.00 68.00 82.00 C 72.67 82.00 77.33 82.00 82.00 82.00 C 81.98 72.99 82.02 63.97 81.99 54.96 C 81.98 49.61 80.76 43.94 76.92 39.99 C 69.40 32.05 55.17 33.94 48.95 42.57 M 14.00 36.00 C 14.00 51.33 14.00 66.67 14.00 82.00 C 18.67 82.00 23.33 82.00 28.00 82.00 C 28.00 66.67 28.00 51.33 28.00 36.00 C 23.33 36.00 18.67 36.00 14.00 36.00 Z" />
</svg>
