<svg xmlns="http://www.w3.org/2000/svg" width="1440" height="1440" version="1.1" viewBox="0 0 1080 1080"><g id="#f2b236ff"><path fill="#f2b236" d="M 196.54 172.00 C 253.62 172.00 310.71 171.99 367.79 172.01 C 367.78 287.99 367.78 403.98 367.79 519.96 C 477.83 404.00 587.79 287.95 697.83 171.98 C 761.65 172.04 825.46 171.97 889.28 172.01 C 786.48 282.68 683.66 393.35 580.85 504.01 C 689.74 641.66 798.61 779.32 907.46 917.00 C 840.42 916.99 773.37 917.02 706.33 916.98 C 626.84 819.47 547.33 721.99 467.82 624.50 C 439.81 653.61 411.81 682.74 383.79 711.84 C 378.51 717.52 372.78 722.88 367.82 728.81 C 367.73 791.53 367.80 854.26 367.79 916.99 C 310.71 917.01 253.63 916.99 196.55 917.00 C 196.54 668.67 196.54 420.34 196.54 172.00 Z" opacity="1"/></g></svg>